<svg xmlns="http://www.w3.org/2000/svg" width="40" height="40" viewBox="0 0 40 40"><defs><style>.a{fill:#c4a3fd;}.b{fill:#fff;}</style></defs><g transform="translate(-163 -6905)"><circle class="a" cx="20" cy="20" r="20" transform="translate(163 6905)"/><g transform="translate(173.271 6869.996)"><g transform="translate(0 47.522)"><path class="b" d="M18.932,49.245a.378.378,0,0,0-.389-.087l-.642.222a4.364,4.364,0,0,0,.8-1.389.359.359,0,0,0-.481-.44c-.9.378-1.7.707-2.332.9a.088.088,0,0,1-.072-.009,6.592,6.592,0,0,0-2.669-.923,4.288,4.288,0,0,0-4.121,4.329v.128a11.793,11.793,0,0,1-7.2-3.711l-.313-.328-.208.4A4.307,4.307,0,0,0,2.267,53.6a2.462,2.462,0,0,1-1.316-.568A.389.389,0,0,0,.484,53a.383.383,0,0,0-.164.43,6.3,6.3,0,0,0,2.781,3.5,2.662,2.662,0,0,1-1.547-.376A.39.39,0,0,0,.974,57a3.853,3.853,0,0,0,3.516,2.741A7.98,7.98,0,0,1,.433,60.767a.443.443,0,0,0-.409.3.429.429,0,0,0,.138.477c1.155.931,3.746,1.487,6.931,1.487,5.7,0,10.339-5.073,10.339-11.308v-.11a3.178,3.178,0,0,0,1.6-1.983A.375.375,0,0,0,18.932,49.245Z" transform="translate(0 -47.522)"/></g></g></g></svg>